<?xml version="1.0" encoding="utf-8"?>
<!-- Generator: Adobe Illustrator 26.0.2, SVG Export Plug-In . SVG Version: 6.00 Build 0)  -->
<svg version="1.1" id="Layer_1" xmlns="http://www.w3.org/2000/svg" xmlns:xlink="http://www.w3.org/1999/xlink" x="0px" y="0px"
	 viewBox="0 0 35 35" style="enable-background:new 0 0 35 35;" xml:space="preserve">
<style type="text/css">
	.st0{fill:#232323;}
</style>
<g>
	<path class="st0" d="M-42.55,23.32c0,2.65,2.16,4.8,4.8,4.8c2.45,0,4.5-1.83,4.77-4.27l0.03-0.24h10.61l0.03,0.24
		c0.27,2.43,2.33,4.27,4.77,4.27c2.65,0,4.8-2.16,4.8-4.8c0-1.12-0.4-2.21-1.12-3.07l-0.16-0.19l1.63-1.57
		c0.06-0.06,0.09-0.13,0.09-0.22c0-0.08-0.03-0.16-0.09-0.22c-1.39-1.36-3.22-2.1-5.15-2.1c-0.37,0-0.76,0.03-1.2,0.11l-0.23,0.04
		l-0.07-0.22c-0.59-1.91-1.43-3.7-2.48-5.34l-0.2-0.3l0.93-0.28c0.13-0.04,0.22-0.15,0.22-0.29V7.19c0-0.16-0.12-0.29-0.28-0.3
		c-1.04-0.07-1.82,0.26-2.27,0.95l-0.19,0.29l-0.24-0.26c-0.28-0.31-0.57-0.61-0.86-0.9c-0.11-0.1-0.28-0.11-0.39-0.02l-0.92,0.73
		l-0.16-0.08c-1.27-0.68-2.79-0.69-4.65-0.03c-0.08,0.03-0.14,0.08-0.17,0.15c-0.03,0.07-0.04,0.15-0.01,0.23
		c0.03,0.08,0.08,0.14,0.15,0.17c0.07,0.03,0.15,0.04,0.23,0.01c1.78-0.64,3.21-0.6,4.36,0.11l0.08,0.08
		c3.02,4.62,3.4,8.38,1.04,10.33c-1.96,1.63-5.14,1.38-6.46,0.1c-1.07-1.04-0.91-2.57,0.44-4.31c0.02-0.03,0.03-0.05,0.04-0.07
		l0.02-0.08c0.01-2.06-1.64-3.71-3.66-3.71h-4.1c-1.9,0-3.5,1.48-3.65,3.37l-0.01,0.17l-0.16,0.06c-2.57,1.02-3.42,4.33-3.91,7.43
		c-0.01,0.09,0.01,0.17,0.07,0.24c0.06,0.07,0.14,0.1,0.23,0.1h3.63l-0.07,0.33C-42.52,22.62-42.55,22.97-42.55,23.32z
		 M-34.78,26.29c-0.79,0.79-1.85,1.23-2.97,1.23c-2.32,0-4.2-1.89-4.2-4.2c0-0.39,0.06-0.79,0.16-1.17l0.06-0.2h2.31l-0.2,0.39
		c-0.16,0.31-0.24,0.63-0.24,0.97c0,1.17,0.95,2.12,2.12,2.12c1.17,0,2.12-0.95,2.12-2.12c0-0.33-0.08-0.66-0.24-0.97l-0.2-0.39
		h2.31l0.06,0.2c0.11,0.38,0.16,0.77,0.16,1.17C-33.55,24.44-33.98,25.49-34.78,26.29z M-39.27,23.32c0-0.55,0.3-1.06,0.79-1.33
		l0.06-0.03h1.34l0.06,0.03c0.48,0.27,0.78,0.78,0.78,1.33c0,0.84-0.68,1.52-1.52,1.52S-39.27,24.15-39.27,23.32z M-13.34,23.32
		c0,1.12-0.44,2.18-1.23,2.97c-0.79,0.79-1.85,1.23-2.97,1.23c-2.32,0-4.2-1.89-4.2-4.2c0-2.32,1.89-4.2,4.2-4.2
		C-15.23,19.11-13.34,21-13.34,23.32z M-17.55,16.55c1.56,0,3.08,0.54,4.28,1.52l0.24,0.19l-1.43,1.38l-0.18-0.14
		c-0.85-0.65-1.85-0.99-2.9-0.99c-2.45,0-4.5,1.83-4.77,4.26l-0.03,0.24h-1.97l0.03-0.29C-23.99,19.26-21.03,16.55-17.55,16.55z
		 M-22.81,8.54c0.22-0.63,0.66-0.97,1.33-1.04l0.3-0.03v1.98l-0.91,0.27l-0.11-0.15c-0.19-0.26-0.37-0.51-0.57-0.75l-0.09-0.12
		L-22.81,8.54z M-41.57,13.63c0.29-1.42,1.56-2.45,3.01-2.45h4.1c1.45,0,2.71,1.03,3.01,2.45l0.07,0.32h-10.24L-41.57,13.63z
		 M-44.37,21.36h-1.28l0.06-0.32c0.5-2.87,1.37-5.89,3.98-6.48l0.06-0.01h9.85l-0.24,0.41c-1.3,2.23-0.42,3.6,0.22,4.22
		c1.7,1.65,5.23,1.62,7.26-0.07c1.21-1,3.55-4.06-0.71-10.8l-0.13-0.21l0.66-0.52l0.17,0.17c2.17,2.22,3.84,5.06,4.83,8.21
		l0.08,0.26l-0.25,0.08c-2.86,0.93-4.85,3.46-5.07,6.46l-0.02,0.25h-8.04l-0.03-0.24c-0.02-0.17-0.04-0.33-0.08-0.49l-0.07-0.33
		h0.64c0.16,0,0.3-0.13,0.3-0.3c0-1.47-0.54-2.82-1.52-3.8c-0.99-0.99-2.36-1.54-3.86-1.54c-2.93,0-5.7,2-6.73,4.86L-44.37,21.36z
		 M-43.75,21.36l0.17-0.38c1.06-2.39,3.53-4.06,6.01-4.06c1.34,0,2.56,0.48,3.44,1.36c0.73,0.73,1.19,1.69,1.31,2.78l0.03,0.3
		H-43.75z"/>
	<polygon class="st0" points="-30.54,14.33 -30.54,14.33 -30.54,14.33 	"/>
</g>
<g>
	<path class="st0" d="M12.95,23.48c-1.93,0-3.5,1.6-3.5,3.56s1.57,3.56,3.5,3.56s3.5-1.6,3.5-3.56S14.88,23.48,12.95,23.48z
		 M12.95,29.25c-1.18,0-2.14-0.99-2.14-2.2c0-1.21,0.96-2.2,2.14-2.2s2.14,0.99,2.14,2.2C15.09,28.26,14.13,29.25,12.95,29.25z"/>
	<path class="st0" d="M27.13,23.48c-1.93,0-3.5,1.6-3.5,3.56s1.57,3.56,3.5,3.56c1.93,0,3.51-1.6,3.51-3.56S29.07,23.48,27.13,23.48
		z M27.13,29.25c-1.18,0-2.14-0.99-2.14-2.2c0-1.21,0.96-2.2,2.14-2.2c1.18,0,2.14,0.99,2.14,2.2
		C29.28,28.26,28.32,29.25,27.13,29.25z"/>
	<path class="st0" d="M3.34,5.76c1.47,0,2.27,0.99,2.53,1.97l4.24,13.23c0.09,0.28,0.35,0.47,0.65,0.47H28.2
		c0.29,0,0.55-0.18,0.64-0.46l4.62-13.18c0.07-0.21,0.04-0.44-0.09-0.62c-0.13-0.18-0.33-0.29-0.55-0.29H10.36
		c-0.38,0-0.68,0.31-0.68,0.68s0.31,0.68,0.68,0.68h21.5l-4.14,11.82H11.26L7.2,7.4C7.12,7.11,6.69,5.71,5.36,4.92
		C4.43,4.36,3.3,4.25,2.01,4.58C1.65,4.67,1.43,5.05,1.52,5.41c0.05,0.18,0.16,0.32,0.31,0.42C1.99,5.92,2.18,5.94,2.35,5.9
		C2.71,5.8,3.04,5.76,3.34,5.76z"/>
</g>
</svg>
