<?xml version="1.0" encoding="utf-8"?>
<!-- Generator: Adobe Illustrator 26.0.2, SVG Export Plug-In . SVG Version: 6.00 Build 0)  -->
<svg version="1.1" id="Layer_1" xmlns="http://www.w3.org/2000/svg" xmlns:xlink="http://www.w3.org/1999/xlink" x="0px" y="0px"
	 viewBox="0 0 35 35" style="enable-background:new 0 0 35 35;" xml:space="preserve">
<style type="text/css">
	.st0{fill:#232323;}
</style>
<path class="st0" d="M19.05,9.48l-1.55,1.5l-1.55-1.5c-1.45-1.4-3.35-2.09-5.25-2.09c-1.9,0-3.81,0.7-5.25,2.09
	C3.87,11,3,13.02,3,15.17c0,2.15,0.87,4.17,2.44,5.69L17.2,32.2c0.16,0.16,0.44,0.16,0.61,0l11.76-11.34
	c1.57-1.52,2.44-3.54,2.44-5.69c0-2.15-0.87-4.17-2.44-5.69C26.66,6.69,21.95,6.69,19.05,9.48z M28.95,10.11
	c1.4,1.35,2.17,3.15,2.17,5.06c0,1.91-0.77,3.7-2.17,5.06L17.5,31.28L6.05,20.23c-1.4-1.35-2.17-3.15-2.17-5.06
	c0-1.91,0.77-3.71,2.17-5.06c1.24-1.2,2.89-1.85,4.65-1.85c1.76,0,3.41,0.66,4.65,1.85l1.86,1.79c0.17,0.16,0.44,0.16,0.61,0
	l1.85-1.79C22.22,7.64,26.39,7.64,28.95,10.11z"/>
</svg>
