<?xml version="1.0" encoding="utf-8"?>
<!-- Generator: Adobe Illustrator 26.0.2, SVG Export Plug-In . SVG Version: 6.00 Build 0)  -->
<svg version="1.1" id="Layer_1" xmlns="http://www.w3.org/2000/svg" xmlns:xlink="http://www.w3.org/1999/xlink" x="0px" y="0px"
	 viewBox="0 0 35 35" style="enable-background:new 0 0 35 35;" xml:space="preserve">
<style type="text/css">
	.st0{fill:#232323;}
</style>
<path class="st0" d="M21.22,33.36h10.26c0.29,0,0.52-0.23,0.52-0.52l0-18.79c0.02-0.17-0.05-0.34-0.18-0.45L17.95,1.76
	c-0.19-0.17-0.48-0.17-0.67-0.01L3.19,13.41C3.12,13.47,3,13.6,3,13.8v19.04c0,0.29,0.23,0.52,0.52,0.52h9.91
	c0.29,0,0.52-0.23,0.52-0.52v-7.31h6.74v7.31C20.69,33.13,20.93,33.36,21.22,33.36z M13.43,24.49c-0.29,0-0.52,0.23-0.52,0.52v7.31
	H4.05V14.03L17.61,2.84l13.35,11.4v18.08h-9.22v-7.31c0-0.29-0.23-0.52-0.52-0.52H13.43z"/>
</svg>
